<svg width="400" height="300" viewBox="0 0 400 300" xmlns="http://www.w3.org/2000/svg">
  <rect width="400" height="300" rx="12" fill="#16161e" stroke="#f38ba8" stroke-width="2" stroke-opacity="0.3"/>
  <text x="20" y="30" font-family="Arial" font-size="14" fill="#f38ba8" font-weight="bold">LEGACY SPAGHETTI</text>
  
  <g stroke="#f38ba8" stroke-width="1" opacity="0.4">
    <line x1="100" y1="80" x2="300" y2="220" />
    <line x1="100" y1="80" x2="150" y2="200" />
    <line x1="300" y1="220" x2="50" y2="150" />
    <line x1="50" y1="150" x2="350" y2="100" />
    <line x1="350" y1="100" x2="100" y2="250" />
    <line x1="100" y1="250" x2="250" y2="50" />
    <line x1="250" y1="50" x2="100" y2="80" />
    <line x1="200" y1="150" x2="50" y2="150" />
    <line x1="200" y1="150" x2="350" y2="100" />
    <line x1="150" y1="200" x2="300" y2="220" />
  </g>

  <circle cx="100" cy="80" r="8" fill="#f38ba8" />
  <circle cx="300" cy="220" r="10" fill="#fab387" />
  <circle cx="50" cy="150" r="7" fill="#f38ba8" />
  <circle cx="350" cy="100" r="9" fill="#eba0ac" />
  <circle cx="100" cy="250" r="8" fill="#fab387" />
  <circle cx="250" cy="50" r="7" fill="#f38ba8" />
  <circle cx="200" cy="150" r="12" fill="#f38ba8" />
  <circle cx="150" cy="200" r="6" fill="#eba0ac" />
</svg>
